<svg xmlns="http://www.w3.org/2000/svg" xmlns:xlink="http://www.w3.org/1999/xlink" width="500" zoomAndPan="magnify" viewBox="0 0 375 374.999991" height="500" preserveAspectRatio="xMidYMid meet" version="1.0"><defs><clipPath id="375cc334e9"><path d="M 7.375 37.5 L 361.375 37.5 L 361.375 329.25 L 7.375 329.25 Z M 7.375 37.5 " clip-rule="nonzero"/></clipPath></defs><g clip-path="url(#375cc334e9)"><path fill="#1065d8" d="M 21.167969 164.527344 L 21.167969 47.929688 C 21.167969 41.292969 14.011719 37.53125 7.375 37.53125 L 118.367188 37.53125 C 112.910156 37.53125 109.222656 39.597656 105.828125 44.242188 Z M 110.03125 322.789062 L 21.167969 194.394531 L 21.167969 319.027344 C 21.167969 325.738281 14.011719 329.425781 7.375 329.425781 L 122.570312 329.425781 C 117.113281 329.5 112.910156 327.433594 110.03125 322.789062 Z M 350.964844 37.53125 L 305.09375 37.53125 C 298.382812 37.53125 294.695312 41.292969 294.695312 47.929688 L 294.695312 147.195312 L 211.214844 147.195312 L 211.214844 47.929688 C 211.214844 41.292969 207.453125 37.53125 200.816406 37.53125 L 170.949219 37.53125 C 179.28125 37.53125 182.601562 42.988281 177.585938 50.070312 L 87.761719 179.570312 L 181.714844 316.960938 C 186.289062 324.042969 183.410156 329.5 175.078125 329.5 L 200.816406 329.5 C 207.453125 329.5 211.214844 325.738281 211.214844 319.101562 L 211.214844 211.429688 L 294.621094 211.429688 L 294.621094 319.027344 C 294.621094 325.738281 298.382812 329.425781 305.019531 329.425781 L 350.890625 329.425781 C 357.53125 329.425781 361.289062 325.664062 361.289062 319.027344 L 361.289062 47.929688 C 361.363281 41.292969 357.601562 37.53125 350.964844 37.53125 Z M 350.964844 37.53125 " fill-opacity="1" fill-rule="nonzero"/></g></svg>